 <svg  version="1.0" xmlns="http://www.w3.org/2000/svg"  width="300.000000pt" height="211.000000pt" viewBox="0 0 300.000000 211.000000"  preserveAspectRatio="xMidYMid meet">  <g transform="translate(0.000000,211.000000) scale(0.100000,-0.100000)" fill="#1f310a" stroke="none"> <path d="M2401 2062 c-10 -19 -121 -62 -158 -62 -11 0 -45 11 -75 25 -43 20 -69 25 -136 25 -78 0 -85 -2 -111 -28 -15 -15 -30 -32 -32 -37 -7 -17 -103 -74 -135 -81 -25 -5 -33 -1 -47 20 -15 22 -25 26 -69 26 -33 0 -58 -6 -69 -16 -16 -14 -22 -13 -70 11 -55 28 -53 28 -192 8 -30 -4 -46 0 -68 16 -35 26 -55 27 -69 1 -14 -25 -94 -28 -121 -4 -14 13 -25 14 -70 4 -30 -6 -66 -14 -81 -17 -19 -3 -42 3 -74 21 l-47 26 -38 -26 c-32 -22 -45 -25 -81 -20 -126 19 -136 19 -184 -8 -59 -33 -76 -32 -148 4 -66 34 -95 37 -156 15 -33 -12 -52 -13 -80 -5 -25 7 -47 7 -64 0 l-26 -10 0 -898 0 -899 25 5 c15 2 33 -2 43 -11 24 -21 98 -57 118 -57 9 0 38 13 64 29 57 35 152 56 217 48 154 -20 148 -20 183 2 19 11 42 21 51 21 9 0 41 -25 70 -56 30 -31 71 -67 91 -80 l37 -24 43 19 c30 13 56 37 88 79 l45 61 54 1 c44 0 67 -7 118 -35 35 -19 70 -35 78 -35 7 0 26 16 42 35 28 33 30 34 68 24 22 -6 58 -21 80 -34 22 -13 57 -28 78 -35 37 -12 40 -11 70 18 18 17 49 38 70 47 36 15 39 15 67 -5 24 -17 37 -19 85 -14 l56 7 49 -48 49 -48 37 29 c102 81 127 94 183 94 52 0 58 3 103 47 l47 46 42 -12 c27 -8 64 -33 100 -67 50 -48 60 -54 85 -48 40 9 52 21 80 76 13 26 28 48 33 48 5 0 40 -14 79 -31 l71 -32 51 33 50 32 0 860 0 859 -34 -26 c-31 -23 -39 -25 -71 -16 -20 5 -56 28 -81 50 -24 23 -51 41 -59 41 -20 0 -91 -36 -100 -50 -4 -6 -18 -15 -32 -21 -30 -11 -47 -3 -113 56 -54 48 -93 58 -109 27z"/> </g> </svg> 